# xmcd
#
# Track frame offsets:
# 150
# 9583
# 32716
# 40015
# 59807
# 73089
# 83448
# 95923
# 110502
# 126057
# 136541
# 177445
# 190308
#
# Disc length: 2781 seconds
#
#
# Revision: 0
# Processed by: cddbd v1.5.2PL0 Copyright (c) Steve Scherf et al.
# Submitted via: Nero 7, 0, 8, 2 All words and Music by Richard Smerin
#
DISCID=b00adb0d
DTITLE=Richard Smerin - Right To Sing The Blues
DYEAR=2001
DGENRE=Blues
TTITLE0=Right To Sing The Blues
TTITLE1=Uneasy Passage Of Time
TTITLE2=You Can't Sing My Song
TTITLE3=Jolson In My Head
TTITLE4=Windscreen Of A Car
TTITLE5=How Long Must I Be Feeling Bad
TTITLE6=My Son
TTITLE7='till One Of Us Dies
TTITLE8=Louise Louise
TTITLE9=Inside Out
TTITLE10=Adelsdorf
TTITLE11=Today I Passed Away
TTITLE12=The Best Is Always Yet To Come
EXTD=
EXTT0=All words and Music by Richard Smerin
EXTT1=All words and Music by Richard Smerin
EXTT2=All words and Music by Richard Smerin
EXTT3=All words and Music by Richard Smerin
EXTT4=All words and Music by Richard Smerin
EXTT5=All words and Music by Richard Smerin
EXTT6=All words and Music by Richard Smerin
EXTT7=All words and Music by Richard Smerin
EXTT8=All words and Music by Richard Smerin
EXTT9=All words and Music by Richard Smerin
EXTT10=All words and Music by Richard Smerin
EXTT11=All words and Music by Richard Smerin
EXTT12=All words and Music by Richard Smerin
PLAYORDER=
